<svg width="21" height="21" viewBox="0 0 21 21" fill="none" xmlns="http://www.w3.org/2000/svg">
<path fill-rule="evenodd" clip-rule="evenodd" d="M0.292893 1.70711C-0.097631 1.31658 -0.097631 0.683417 0.292893 0.292893C0.683419 -0.0976311 1.31658 -0.0976311 1.70711 0.292893L20.7071 19.2929C21.0976 19.6834 21.0976 20.3166 20.7071 20.7071C20.3166 21.0976 19.6834 21.0976 19.2929 20.7071L15.8523 17.2665C12.7074 19.2815 8.60991 19.1517 5.58782 16.8771C5.08232 16.4967 4.56776 15.9821 3.69706 15.1113L3.56781 14.982C3.15504 14.5694 2.87387 14.2883 2.66195 14.0068C1.32183 12.2263 1.32183 9.77377 2.66195 7.99324C2.87386 7.71169 3.15501 7.43064 3.56777 7.01802L3.69706 6.88874C4.04376 6.542 4.33402 6.25172 4.5897 6.00391L0.292893 1.70711ZM6.00423 7.41844C5.75554 7.65932 5.44745 7.96679 5.04045 8.37379C4.54735 8.86688 4.37595 9.04179 4.25991 9.19595C3.45584 10.2643 3.45584 11.7358 4.25991 12.8041C4.37595 12.9582 4.54735 13.1331 5.04045 13.6262C6.00255 14.5883 6.41196 14.9943 6.79053 15.2792C9.02124 16.9581 12.0053 17.1346 14.3944 15.8086L13.1648 14.579C12.8231 14.7638 12.4468 14.8937 12.0475 14.9569C11.7734 15.0003 11.4657 15.0002 11.0757 15H10.9243C10.5343 15.0002 10.2266 15.0003 9.95249 14.9569C8.45486 14.7197 7.2803 13.5452 7.0431 12.0475C6.99968 11.7734 6.99981 11.4657 6.99998 11.0757V10.9243C6.99981 10.5343 6.99968 10.2266 7.0431 9.95249C7.10633 9.55323 7.23619 9.17694 7.42103 8.83524L6.00423 7.41844ZM9.00539 10.4196C9.00113 10.5276 9.00001 10.697 9.00001 11C9.00001 11.5027 9.00311 11.6377 9.01847 11.7347C9.12013 12.3765 9.62352 12.8799 10.2654 12.9815C10.3624 12.9969 10.4973 13 11 13C11.303 13 11.4724 12.9989 11.5804 12.9946L9.00539 10.4196Z" fill="#B2BCC9"/>
<path d="M7.96237 3.84105L9.58021 5.45889C11.5056 5.0608 13.5628 5.48146 15.2095 6.72084C15.5881 7.00578 15.9975 7.41169 16.9596 8.37379C17.4527 8.86688 17.6241 9.04179 17.7401 9.19595C18.5442 10.2643 18.5442 11.7358 17.7401 12.8041C17.6624 12.9073 17.5598 13.0199 17.3524 13.2311L18.7669 14.6456C19.006 14.4023 19.1891 14.2047 19.3381 14.0068C20.6782 12.2263 20.6782 9.77377 19.3381 7.99324C19.1262 7.71169 18.845 7.43064 18.4323 7.01804L18.303 6.88875C17.4323 6.01801 16.9177 5.50333 16.4122 5.12288C13.9446 3.26561 10.7599 2.83834 7.96237 3.84105Z" fill="#B2BCC9"/>
<path d="M11.1213 6.99997L15 10.8787C15.0001 10.5102 14.9986 10.2159 14.9569 9.95249C14.7197 8.45487 13.5452 7.2803 12.0475 7.0431C11.7841 7.00139 11.4898 6.99987 11.1213 6.99997Z" fill="#B2BCC9"/>
</svg>
