<svg width="14" height="13" viewBox="0 0 14 13" fill="none" xmlns="http://www.w3.org/2000/svg">
<path d="M5.66592 2.61076C6.07794 1.49562 6.28394 0.93805 6.58421 0.779139C6.84432 0.641488 7.15568 0.641488 7.41578 0.779139C7.71606 0.93805 7.92206 1.49562 8.33408 2.61076L8.54519 3.18214C8.66893 3.51707 8.73081 3.68454 8.83887 3.80801C8.93433 3.91707 9.05501 4.00113 9.1904 4.05288C9.34367 4.11146 9.5222 4.11146 9.87926 4.11146H10.7955C12.0788 4.11146 12.7204 4.11146 12.976 4.348C13.1971 4.55265 13.2995 4.85535 13.248 5.15219C13.1885 5.49531 12.6786 5.88482 11.6589 6.66385L10.8441 7.2863C10.56 7.50334 10.4179 7.61185 10.3316 7.75163C10.2554 7.87509 10.2106 8.01534 10.2011 8.16011C10.1903 8.32401 10.2431 8.4948 10.3486 8.83638L10.6306 9.74873C11.0285 11.0367 11.2275 11.6806 11.0715 11.9977C10.9367 12.2719 10.6705 12.4576 10.3667 12.4894C10.0152 12.5263 9.47956 12.1171 8.40836 11.2988L7.86338 10.8825C7.55418 10.6463 7.39958 10.5282 7.22933 10.4827C7.07907 10.4426 6.92092 10.4426 6.77067 10.4827C6.60042 10.5282 6.44582 10.6463 6.13662 10.8825L5.59164 11.2988C4.52044 12.1171 3.98483 12.5263 3.63334 12.4894C3.32949 12.4576 3.0633 12.2719 2.92845 11.9977C2.77246 11.6806 2.97145 11.0367 3.36944 9.74873L3.65137 8.83638C3.75693 8.4948 3.8097 8.32401 3.79891 8.16011C3.78938 8.01534 3.74456 7.87509 3.66835 7.75163C3.58208 7.61185 3.44003 7.50334 3.15593 7.2863L2.34113 6.66385C1.32137 5.88482 0.811482 5.49531 0.751994 5.15219C0.70053 4.85535 0.802923 4.55265 1.02402 4.348C1.27958 4.11146 1.92123 4.11146 3.20451 4.11146H4.12074C4.4778 4.11146 4.65633 4.11146 4.8096 4.05288C4.94498 4.00113 5.06567 3.91707 5.16113 3.80801C5.26919 3.68454 5.33106 3.51707 5.45481 3.18214L5.66592 2.61076Z" fill="#F9E000" stroke="#EED600" stroke-linejoin="round"/>
</svg>
